      <svg
        width="392"
        height="392"
        viewBox="0 0 592 592"
        fill="none"
        xmlns="http://www.w3.org/2000/svg"
      >
        <mask
          id="mask0_1_1226"
          maskUnits="userSpaceOnUse"
          x="0"
          y="0"
          width="591"
          height="591"
        >
          <circle cx="295.03" cy="295.03" r="295.03" fill="#D9D9D9" />
        </mask>
        <g mask="url(#mask0_1_1226)">
          <path
            d="M456.769 538.604C455.415 539.571 453.867 540.539 452.513 541.506C450.965 542.473 449.611 543.441 448.063 544.214C446.709 544.988 445.548 545.762 444.194 546.536C444 546.729 443.807 546.729 443.613 546.923C439.164 549.631 434.521 552.146 429.877 554.468C428.523 555.242 426.975 556.016 425.621 556.596C425.621 556.596 425.428 556.79 425.234 556.79C423.687 557.563 422.139 558.337 420.591 559.111C417.496 560.659 414.207 562.013 411.111 563.367C409.564 564.141 407.822 564.722 406.275 565.302C404.727 565.882 402.986 566.656 401.438 567.237C399.89 567.817 398.149 568.591 396.602 569.171C396.602 569.171 396.602 569.171 396.408 569.171C394.86 569.752 393.119 570.332 391.571 570.912C388.089 572.073 384.413 573.234 380.931 574.395C379.77 574.782 378.416 575.169 377.255 575.556C373.579 576.716 369.904 577.684 366.228 578.458C364.873 578.844 363.519 579.038 361.971 579.425C358.489 580.199 354.813 580.973 351.331 581.746C350.557 581.94 349.977 581.94 349.203 582.133C348.042 582.327 346.688 582.52 345.527 582.714C343.786 582.907 342.238 583.294 340.497 583.488C339.723 583.681 338.949 583.681 338.175 583.875C337.208 584.068 336.047 584.261 334.887 584.261C331.791 584.648 328.502 585.035 325.407 585.422C324.439 585.616 323.279 585.616 322.311 585.809H322.118C320.764 586.003 319.409 586.003 318.055 586.196C316.701 586.39 315.347 586.39 313.992 586.39C313.219 586.39 312.251 586.583 311.477 586.583C309.93 586.583 308.575 586.777 307.221 586.777C305.287 586.777 303.545 586.97 301.611 586.97C299.676 586.97 297.935 586.97 296 586.97C294.646 586.97 293.292 586.97 291.938 586.97C210.296 585.809 136.973 551.179 84.5441 496.235C84.5441 496.235 84.544 496.042 84.3506 496.042C78.5467 490.818 83.5767 462.96 106.986 445.354C136.392 423.106 206.813 409.177 206.813 409.177C206.813 409.177 234.092 404.727 335.273 425.814C394.473 438.196 439.551 456.188 464.701 504.941C469.924 515.001 475.148 530.478 456.769 538.604Z"
            fill="white"
          />
          <path
            d="M335.854 423.686C372.999 431.231 412.659 439.357 443.227 463.927C453.48 472.246 460.251 484.434 465.862 496.235C468.57 502.039 471.279 508.037 473.407 514.421C474.568 518.677 476.309 523.514 475.342 528.544C475.148 529.898 473.987 531.639 473.02 532.607C468.57 537.056 463.734 539.765 458.897 543.247C430.458 562.98 397.762 576.91 363.906 584.262C288.455 600.706 206.813 587.937 140.455 548.277C118.4 534.928 98.0866 518.677 80.6749 499.524C78.7402 497.203 78.7402 493.333 78.7402 490.818C78.9337 485.014 80.4814 479.404 82.416 474.18C87.0592 462.186 93.0566 450.191 103.31 441.872C110.662 436.842 118.594 432.586 126.719 429.103C152.257 418.269 179.148 410.724 206.813 407.629C209.135 407.435 209.522 410.724 207.2 411.111C180.696 416.528 154.385 424.654 129.815 435.681C120.915 440.131 111.436 444 104.277 450.965C97.5062 458.316 92.6696 467.409 88.8004 476.695C86.2853 482.306 84.5442 491.205 85.318 495.655C97.5062 510.165 111.823 522.933 127.3 533.961C212.037 593.161 340.691 597.03 430.845 547.697C438.97 543.247 446.902 538.217 454.447 532.994C458.123 530.479 461.993 528.35 464.894 525.448C465.088 525.255 464.894 525.448 464.894 525.642C464.894 525.835 464.701 526.029 464.701 526.029C464.894 523.707 464.121 520.612 463.153 517.516C459.671 506.296 454.06 494.494 448.063 484.241C438.583 468.957 422.526 459.284 406.275 451.545C395.054 446.322 383.253 442.259 371.258 438.39C359.263 434.52 347.075 431.231 334.887 428.329C331.791 427.556 332.759 423.106 335.854 423.686Z"
            fill="black"
          />
          <path
            d="M521 658.551H31.729C31.729 658.551 39.661 578.844 69.8414 515.194C80.8689 491.978 84.5447 457.929 106.406 443.032C128.848 427.748 176.634 415.56 193.271 413.625C202.558 412.465 200.43 411.691 207.007 409.95C209.136 415.754 230.61 472.632 282.072 493.526C326.375 511.518 352.686 499.523 356.749 479.597C359.264 466.828 351.332 445.934 347.269 439.163C344.947 437.228 343.4 434.326 342.626 431.424L341.078 425.04C344.56 424.266 347.849 423.299 351.332 422.331C353.073 422.718 355.007 422.525 356.555 423.492C372.806 432.391 421.753 444.967 447.29 471.858C457.35 482.305 473.021 519.45 475.536 543.633C482.694 609.991 521 658.551 521 658.551Z"
            fill="white"
          />
          <path
            d="M523.709 659.712C378.611 660.099 174.893 661.84 31.9231 661.26C30.1819 661.26 28.8277 659.712 29.0211 657.971C30.7623 644.235 33.0839 630.886 35.7924 617.344C42.9505 580.392 53.7845 544.021 70.0355 510.165C76.6133 494.301 79.9022 477.663 87.8342 462.186C92.4773 452.899 99.442 444 108.728 438.776C123.625 429.877 140.069 424.267 156.514 419.236C166.381 416.335 176.441 413.626 186.501 411.691C191.531 410.531 196.561 410.724 201.204 408.789C203.719 407.822 208.556 404.92 210.103 408.596C224.226 445.161 251.505 479.791 289.617 492.753C309.351 499.911 343.594 505.908 353.654 481.725C356.749 472.633 353.847 462.766 351.139 453.673C349.591 449.03 347.656 444.193 345.335 440.324L345.915 440.904C342.433 438.003 340.498 433.359 339.918 429.103L338.951 425.234C338.564 423.686 339.531 422.138 341.079 421.752C344.561 421.171 348.043 420.01 351.526 419.043C353.46 419.043 356.556 419.43 359.071 420.784C380.352 430.651 404.535 437.809 424.849 450.191C436.263 456.962 447.871 464.894 455.222 476.308C468.765 498.944 477.471 524.674 479.986 550.792C485.403 588.131 500.493 623.921 522.161 654.682L522.935 655.65L523.322 656.037L523.515 656.23C523.515 656.23 523.515 656.037 523.709 656.617C523.902 657.778 523.902 659.132 523.709 659.712ZM518.485 657.197C518.098 657.778 518.098 659.132 518.485 659.712C518.872 660.099 518.679 659.906 518.679 659.906L518.485 659.712L518.098 659.132L517.324 658.165C505.136 639.592 495.076 619.665 487.724 598.965C481.921 583.681 477.664 567.817 475.343 551.566C474.569 545.762 473.602 538.023 472.247 532.413C467.798 513.84 460.639 495.268 450.386 479.21C447.097 473.987 442.26 469.924 437.424 466.055C422.14 454.447 404.148 447.289 386.349 440.324L368.164 433.553C362.166 431.231 355.008 428.716 351.332 425.04H352.88C349.398 426.201 345.915 427.169 342.433 427.942L344.561 424.46L345.528 428.329C346.302 431.812 347.076 434.907 349.785 437.229C349.978 437.422 350.171 437.616 350.365 437.809C355.588 447.289 358.684 457.155 360.232 467.796C363.52 486.175 351.913 500.685 334.114 504.167C309.544 509.004 280.137 498.363 259.824 484.627C234.286 466.635 215.907 439.937 204.686 411.111L208.169 412.852C206.428 413.433 205.267 414.013 203.526 414.787C201.785 415.754 199.656 416.335 197.722 416.721C197.915 417.882 197.335 414.4 198.109 419.043C194.433 419.43 191.531 419.623 188.049 420.397C178.182 421.945 168.315 424.267 158.642 426.975C145.68 430.457 132.911 434.714 120.917 440.324C114.919 443.226 109.115 446.321 104.666 450.384C100.022 454.447 96.3466 459.864 93.2512 465.668C84.1584 483.273 79.7087 504.361 70.4224 522.159C51.076 565.302 40.242 612.314 35.0185 659.325L32.1165 656.23C172.571 655.65 375.709 656.423 518.485 657.197Z"
            fill="black"
          />
          <path
            d="M363.907 532.026C357.136 533.961 333.533 509.391 328.697 505.135C324.247 510.165 292.906 545.568 277.429 543.247C260.404 540.732 216.875 511.519 194.82 465.668C182.631 440.518 182.245 425.234 183.599 416.915C184.179 413.046 185.34 410.531 185.92 409.176C187.855 404.727 201.784 387.508 205.267 387.702V387.895C207.008 406.468 213.005 424.46 223.065 440.131C235.447 459.284 254.987 482.306 282.265 493.333C326.569 511.325 349.591 493.527 353.46 473.6C355.975 460.831 351.526 445.741 347.463 438.97C345.141 437.035 343.594 434.133 342.82 431.231L341.272 424.847C344.754 424.073 348.043 423.106 351.526 422.138C352.493 421.752 353.654 421.558 354.621 421.171C355.201 421.945 355.975 422.719 356.556 423.493C364.681 432.779 373.194 445.548 377.837 467.216C385.575 501.846 371.452 529.704 363.907 532.026Z"
            fill="black"
          />
          <path
            d="M328.116 503.974C328.116 503.974 342.239 512.099 341.852 518.871C341.465 525.642 345.528 547.116 345.528 547.116"
            stroke="black"
            stroke-width="3"
            stroke-miterlimit="10"
            stroke-linecap="round"
            stroke-linejoin="round"
          />
          <path
            d="M327.923 529.704C330.487 529.704 332.566 527.626 332.566 525.061C332.566 522.497 330.487 520.418 327.923 520.418C325.359 520.418 323.28 522.497 323.28 525.061C323.28 527.626 325.359 529.704 327.923 529.704Z"
            fill="black"
          />
          <path
            d="M329.47 547.89C332.034 547.89 334.113 545.811 334.113 543.247C334.113 540.683 332.034 538.604 329.47 538.604C326.906 538.604 324.827 540.683 324.827 543.247C324.827 545.811 326.906 547.89 329.47 547.89Z"
            fill="black"
          />
          <path
            d="M127.494 658.551L118.788 586.776"
            stroke="#544D4D"
            stroke-width="3"
            stroke-miterlimit="10"
            stroke-linecap="round"
            stroke-linejoin="round"
          />
          <path
            d="M465.476 562.4C465.476 562.4 459.672 576.523 461.413 590.646C463.154 604.769 468.185 625.469 461.026 658.552"
            stroke="#544D4D"
            stroke-width="3"
            stroke-miterlimit="10"
            stroke-linecap="round"
            stroke-linejoin="round"
          />
          <path
            d="M205.266 387.702C205.266 387.702 267.755 368.355 354.814 420.978C354.814 420.978 378.803 485.595 363.907 495.461C349.01 505.328 302.192 506.295 269.496 495.461C236.607 484.821 194.432 431.618 205.266 387.702Z"
            fill="black"
          />
          <path
            d="M354.038 475.148C349.975 495.074 323.664 507.069 279.36 489.077C233.316 470.504 213.389 426.201 208.359 413.046C235.638 361.971 216.678 326.567 216.678 326.567C279.554 321.15 334.498 394.667 334.498 394.667L343.01 431.038C343.784 434.133 345.332 436.842 347.653 438.776C351.716 445.934 356.553 462.379 354.038 475.148Z"
            fill="white"
          />
          <path
            d="M207.393 413.626C211.069 408.016 213.39 401.438 214.938 395.053C217.84 381.704 218.807 368.162 219.001 354.619V349.589C218.42 344.559 216.679 339.336 214.744 334.693C212.229 328.502 221.322 324.633 224.224 330.823C224.611 331.597 224.611 332.951 224.611 333.725C225.191 360.036 226.352 393.893 209.714 415.754C208.554 416.915 206.232 415.174 207.393 413.626Z"
            fill="black"
          />
          <path
            d="M336.626 394.28C339.528 396.021 340.495 398.342 340.882 400.664C342.043 405.307 341.656 410.337 342.817 415.174C343.784 419.817 346.686 424.267 347.46 429.103C348.428 434.133 351.329 444.774 352.49 449.997C352.877 451.158 352.103 452.512 350.749 452.706C349.975 452.899 349.395 452.706 348.814 452.319C346.299 450.191 345.139 448.063 343.591 445.354C341.076 440.711 339.335 436.455 337.787 431.231C336.433 426.588 337.013 421.558 335.852 416.722C334.885 412.078 332.177 407.629 331.209 402.792C330.629 400.471 330.435 397.956 332.177 395.054C333.337 393.893 335.272 393.506 336.626 394.28Z"
            fill="black"
          />
          <path
            d="M350.556 445.354C313.604 443.419 283.424 431.812 254.018 379.383C278.781 401.244 307.994 409.563 338.755 413.433L342.818 431.231C343.591 434.327 348.235 443.419 350.556 445.354Z"
            fill="black"
          />
          <path
            d="M349.009 438.196C355.587 450.578 359.456 466.055 355.393 479.791C352.298 489.464 343.399 496.622 333.725 499.331C311.284 505.328 285.359 495.848 265.433 485.208C240.863 471.472 222.677 448.45 211.069 423.299C210.295 421.365 213.004 419.817 214.165 421.752C218.227 429.877 222.871 437.809 228.094 444.967C233.318 452.319 239.315 459.09 246.086 465.087C265.82 482.886 292.518 493.914 319.216 493.914C346.688 493.14 357.135 478.63 350.75 451.932C349.783 447.676 348.235 443.226 346.107 439.55C344.946 438.002 347.848 436.261 349.009 438.196Z"
            fill="black"
          />
          <path
            d="M423.879 205.846C427.362 222.097 415.754 239.508 415.754 282.844C415.754 327.148 407.628 375.32 374.159 408.789C345.333 437.616 312.25 436.455 273.364 406.081C267.947 401.825 248.988 387.508 244.151 382.672C238.541 377.061 235.445 372.999 232.737 368.742C230.415 364.873 230.996 342.431 227.707 337.208C219.194 323.085 217.453 338.368 206.426 325.987C191.142 309.349 172.763 275.88 181.856 216.68C196.559 120.721 272.59 109.501 328.888 120.141C385.573 130.975 414.593 163.09 423.879 205.846Z"
            fill="white"
          />
          <path
            d="M216.099 343.205C211.649 335.853 206.039 329.276 200.815 322.504C195.592 315.346 191.335 307.801 187.853 299.676C168.12 251.89 171.022 189.401 206.039 149.161C230.028 121.689 267.947 112.596 302.771 114.531C337.594 116.659 373.772 125.558 399.503 150.708C414.399 165.218 423.879 184.565 428.135 204.685C429.49 211.069 428.522 218.034 426.975 224.031C422.525 240.863 418.269 256.92 417.882 274.332C418.075 300.256 417.301 326.761 409.756 351.717C404.339 368.355 397.955 384.993 387.895 399.503C377.448 414.206 361.777 426.008 343.785 429.49C307.607 436.842 273.751 414.013 249.761 389.25C248.794 388.089 250.148 386.734 251.309 387.508C265.045 397.955 279.168 407.629 294.452 414.206C338.561 434.52 375.126 415.754 394.473 373.192C410.724 342.238 415.367 308.768 414.012 274.138C414.012 265.433 414.399 256.727 415.56 248.021C416.721 235.446 420.977 222.87 420.784 210.489C417.495 190.368 408.209 171.022 394.279 156.125C361.197 121.108 297.741 110.855 253.244 126.719C200.815 145.291 186.692 198.107 183.79 248.601C181.856 278.782 190.755 308.382 213.584 329.082L222.677 338.562C225.772 342.818 219.194 347.848 216.099 343.205Z"
            fill="black"
          />
          <path
            d="M238.928 281.684C238.928 281.684 232.93 252.664 204.684 256.146C180.308 259.242 171.795 317.668 227.126 333.919"
            fill="white"
          />
          <path
            d="M224.611 308.575C220.162 306.06 217.066 301.804 216.873 296.58C217.066 292.711 217.647 288.261 216.679 284.392C216.099 280.716 212.23 279.749 209.328 279.942C206.232 280.523 204.298 284.392 203.717 287.487C203.717 287.681 203.524 288.261 203.524 288.455C203.33 289.422 201.783 289.422 201.396 288.455C198.881 280.91 204.491 272.591 212.616 273.558C224.031 274.332 225.579 286.327 223.45 295.419C222.29 299.289 223.837 302.771 225.966 306.06L226.352 306.64C227.32 307.801 225.772 309.349 224.611 308.575Z"
            fill="black"
          />
          <path
            d="M379.382 261.176C382.284 274.912 387.701 287.681 394.473 299.676C400.47 314.379 384.993 328.308 371.257 327.728C369.709 327.728 369.516 325.6 370.87 325.213C379.576 322.504 387.508 316.701 388.862 307.801C389.443 305.093 388.669 302.771 387.314 300.45C380.93 288.455 377.061 274.719 378.028 261.176C378.028 260.209 379.382 260.209 379.382 261.176Z"
            fill="black"
          />
          <path
            d="M237.961 281.877C233.511 270.462 223.838 259.628 210.876 259.822C209.715 259.628 207.781 260.015 206.62 260.015C203.331 260.209 200.622 261.37 198.107 263.691C185.726 276.073 187.854 297.934 197.914 311.67C201.396 316.507 205.846 320.763 210.876 324.245C215.906 327.728 221.517 330.436 227.514 332.758C228.868 333.145 228.288 335.273 226.934 335.079C213.971 332.371 201.59 325.987 193.077 315.346C179.922 299.482 177.213 272.977 192.884 257.5C196.366 254.405 201.203 252.083 206.039 252.083C207.587 252.083 209.909 251.696 211.456 252.083C219.582 252.47 227.32 256.533 232.351 262.917C236.8 268.334 239.315 274.912 240.089 281.49C240.089 282.651 238.348 283.038 237.961 281.877Z"
            fill="black"
          />
          <path
            d="M360.229 346.301C360.423 349.396 358.101 354.813 353.845 358.682C331.983 345.333 322.117 352.298 322.117 352.298C314.378 340.497 316.119 324.439 334.885 336.627C347.848 345.14 355.973 346.494 360.229 346.301Z"
            fill="black"
          />
          <path
            d="M353.651 358.876C349.008 362.938 342.044 365.453 332.564 361.584C328.114 359.843 324.632 356.361 321.923 352.491C322.117 352.491 331.79 345.527 353.651 358.876Z"
            fill="white"
          />
          <path
            d="M363.905 345.72C363.905 345.72 355.78 350.17 334.885 336.821C309.929 320.763 314.959 354.426 332.564 361.584C350.943 369.129 360.423 352.685 360.229 346.494"
            stroke="black"
            stroke-width="3"
            stroke-miterlimit="10"
            stroke-linecap="round"
            stroke-linejoin="round"
          />
          <path
            d="M322.118 352.491C322.118 352.491 331.984 345.527 353.846 358.876"
            stroke="black"
            stroke-width="3"
            stroke-miterlimit="10"
            stroke-linecap="round"
            stroke-linejoin="round"
          />
          <path
            d="M316.314 267.174C316.314 267.368 316.314 267.561 316.314 267.561L316.12 272.978C315.927 277.621 312.058 281.104 307.414 280.91C302.771 280.717 299.289 276.654 299.676 272.204L299.869 266.787C299.869 265.82 300.256 264.659 300.643 263.885L316.12 264.659C316.12 265.433 316.314 266.207 316.314 267.174Z"
            fill="black"
          />
          <path
            d="M397.181 271.43L396.987 276.46C396.794 280.717 393.118 284.005 388.862 283.812C384.606 283.618 381.317 279.943 381.51 275.686L381.704 270.656C381.704 269.689 381.897 268.722 382.284 267.948L396.794 268.528C396.987 269.496 397.181 270.463 397.181 271.43Z"
            fill="black"
          />
          <path
            d="M335.659 240.669C339.916 241.25 343.204 236.8 341.657 232.544C340.883 230.222 339.529 228.094 337.401 226.74C330.823 222.677 306.253 222.29 293.291 231.577C281.683 240.089 316.313 237.961 335.659 240.669Z"
            fill="black"
          />
          <path
            d="M389.249 242.798C385.767 242.798 383.639 238.348 385.38 234.672C386.347 232.737 387.701 230.996 389.636 230.029C395.633 227.127 411.691 228.868 418.849 238.735C425.233 247.441 405.307 242.604 389.249 242.798Z"
            fill="black"
          />
          <path
            d="M328.694 267.174L296.772 266.594C292.903 266.4 293.097 260.596 296.966 260.79L328.887 263.111C331.596 263.305 331.402 267.174 328.694 267.174Z"
            fill="black"
          />
          <path
            d="M405.307 270.463L381.705 270.85C377.835 270.85 377.642 265.239 381.511 265.046C381.705 265.046 381.705 265.046 381.898 265.046L405.501 267.561C407.242 267.754 407.048 270.269 405.307 270.463Z"
            fill="black"
          />
          <path
            d="M293.485 110.661C179.148 108.34 167.54 204.104 174.698 261.176C182.63 324.632 220.549 349.589 220.549 349.589L223.064 332.758C223.064 332.758 213.971 329.663 205.265 323.278C175.085 300.449 184.371 258.855 204.878 256.34C225.385 253.631 234.285 268.528 237.38 276.653C248.214 240.863 232.931 231.963 248.214 206.619C296 154.964 329.276 189.788 352.685 196.559C378.222 203.717 395.053 195.592 404.533 186.499C411.304 179.921 420.01 192.303 420.01 192.303C420.01 192.303 407.435 112.983 293.485 110.661Z"
            fill="black"
          />
          <path
            d="M396.797 299.095C391.573 292.711 384.802 288.261 376.676 288.068C368.164 287.874 354.815 289.809 341.466 300.449C324.054 314.379 289.231 312.251 275.495 310.896C271.625 310.509 267.95 312.444 266.209 315.926C262.339 323.665 257.116 339.723 259.631 365.647C262.92 401.051 291.746 433.166 332.373 430.457C385.769 427.168 416.917 384.219 418.852 326.76C418.465 310.896 408.985 314.185 396.797 299.095Z"
            fill="white"
          />
          <path
            d="M395.249 300.256C390.799 294.645 384.608 290.196 377.256 289.809C365.068 289.228 352.88 293.678 343.207 301.417C340.692 303.351 337.79 305.286 334.888 306.834C319.024 314.379 300.645 314.766 283.426 313.992C279.944 313.992 276.268 313.025 272.592 313.411C270.271 313.798 268.336 315.733 267.369 318.055C259.05 337.401 258.856 365.066 266.402 384.8C272.592 400.664 284.587 414.206 299.871 421.751C311.866 427.749 325.795 429.296 339.144 427.555C341.659 427.362 347.656 426.008 350.171 425.621C351.526 425.234 357.717 423.299 359.071 422.912C360.232 422.525 363.134 421.171 364.101 420.784C391.96 408.596 408.985 379.77 413.628 350.557C414.595 345.72 415.175 340.69 415.562 335.66C415.756 330.63 416.723 325.6 415.369 321.344C414.208 316.7 410.145 314.572 406.469 311.477C402.407 307.994 398.537 304.319 395.249 300.256ZM398.151 297.934C402.987 304.125 409.565 307.221 415.562 312.251C422.334 317.861 420.979 328.115 420.399 335.66C420.399 337.788 419.625 341.077 419.432 343.398C416.143 366.227 406.856 388.669 390.992 405.694C368.937 429.103 332.179 440.13 301.419 428.329C272.205 416.721 255.761 386.541 256.148 355.974C255.954 343.011 257.502 329.856 262.532 317.668C262.919 316.7 263.306 315.927 263.693 314.959C265.628 310.896 269.884 308.188 274.334 308.381C287.489 309.736 300.838 310.316 313.8 308.381C323.667 307.027 333.34 304.319 340.885 298.128C352.686 289.035 370.872 282.651 385.382 288.068C390.605 290.389 394.668 293.872 398.151 297.934Z"
            fill="black"
          />
          <path
            d="M325.793 309.93C345.914 317.281 384.606 332.178 405.114 327.148C408.596 326.18 411.304 324.052 412.852 320.57C413.239 319.409 414.98 319.99 414.787 320.957C409.757 344.56 361.778 326.567 347.074 321.15C339.529 318.248 332.178 315.153 325.02 311.477C323.859 311.284 324.633 309.543 325.793 309.93Z"
            fill="black"
          />
          <path
            d="M292.905 336.24C326.374 351.524 374.934 372.612 410.918 357.715C411.885 357.328 412.853 358.489 412.079 359.263C390.024 380.35 343.98 363.712 319.797 352.878C310.123 348.429 300.837 343.592 291.938 337.982C290.97 337.401 291.744 335.66 292.905 336.24Z"
            fill="black"
          />
          <path
            d="M290.39 369.71C303.933 379.77 319.797 386.928 336.048 390.991C345.721 393.312 355.781 394.86 365.841 394.667C374.934 394.86 383.833 393.312 392.926 393.699C393.506 393.699 393.893 394.086 393.893 394.667C393.893 395.054 393.7 395.44 393.313 395.44C391.185 396.408 388.863 397.182 386.735 397.762C379.964 399.89 372.806 400.277 365.841 400.084C344.753 400.084 323.859 393.893 305.867 383.059C299.87 379.383 294.259 375.514 289.036 370.677C288.262 370.29 289.423 368.936 290.39 369.71Z"
            fill="black"
          />
          <path
            d="M301.611 314.766C295.033 326.567 292.712 340.497 291.164 353.846C288.455 376.287 293.292 399.503 303.352 419.817C303.932 420.784 302.385 421.945 301.611 420.784C287.488 396.408 283.038 367.001 289.616 339.529C291.164 332.758 293.292 325.987 296.387 319.603C297.548 317.474 298.515 315.54 300.063 313.605C300.45 313.218 301.03 313.025 301.417 313.412C301.804 313.799 301.998 314.379 301.611 314.766Z"
            fill="black"
          />
          <path
            d="M272.204 318.248C260.597 309.155 250.923 298.515 242.411 286.52C239.509 282.651 237.188 278.395 234.672 274.332C234.286 273.752 234.479 272.784 235.253 272.397C235.833 272.01 236.801 272.204 237.187 272.978C244.733 284.972 254.019 295.613 264.659 304.899C268.142 307.995 272.011 311.09 275.687 313.605C278.782 315.733 275.493 320.57 272.204 318.248Z"
            fill="black"
          />
          <path
            d="M225.967 333.338C233.705 356.748 249.956 376.287 269.689 390.797C272.785 393.119 269.302 397.762 266.207 395.44C246.474 379.77 230.223 358.682 223.258 334.112C222.678 332.371 225.386 331.404 225.967 333.338Z"
            fill="black"
          />
          <path
            d="M557.563 163.09C674.996 389.25 468.57 644.429 222.484 582.133C112.016 554.661 23.2157 458.897 4.83662 346.494C-16.0575 234.672 34.4366 114.531 128.847 51.268C258.275 -37.7255 437.616 -8.1255 530.285 119.174C530.865 119.754 530.672 120.722 529.898 121.302C529.318 121.882 528.35 121.689 527.77 120.915C515.001 104.471 500.491 89.5739 484.627 76.2248C458.51 53.9765 427.942 36.5647 395.634 24.7634C231.19 -34.8235 50.6876 64.2301 14.7033 236.22C-25.9242 428.91 137.94 606.316 333.339 579.812C484.047 560.852 596.063 421.752 583.681 270.463C580.973 233.898 571.299 197.72 555.242 164.444C554.855 163.864 555.242 163.09 555.822 162.703C556.403 162.316 557.177 162.51 557.563 163.09Z"
            fill="white"
          />
        </g>
      </svg>