<svg width="109" height="30" viewBox="0 0 109 30" fill="none" xmlns="http://www.w3.org/2000/svg">
<g filter="url(#filter0_dd_1_4)">
<path d="M11.1134 0.610504H4.39019C4.18009 0.610504 4 0.77785 4 0.973088V21.2778C4 21.4731 4.18009 21.6125 4.39019 21.6125C4.60029 21.6125 4.75036 21.4731 4.75036 21.2778V1.30778H11.1134C13.7247 1.30778 15.8557 3.28805 15.8557 5.71458C15.8557 8.11322 13.7247 10.0935 11.1134 10.0935H7.81183C7.60173 10.0935 7.45166 10.2608 7.45166 10.4561C7.45166 10.6513 7.60173 10.7908 7.81183 10.7908H11.1134C14.1449 10.7908 16.576 8.53159 16.576 5.71458C16.576 2.89757 14.1449 0.610504 11.1134 0.610504Z" fill="#B377D8"/>
<path d="M22.2788 20.9153H21.1082C20.8981 20.9153 20.748 21.0826 20.748 21.2778C20.748 21.4731 20.8981 21.6125 21.1082 21.6125H24.1997C24.4098 21.6125 24.5899 21.4731 24.5899 21.2778C24.5899 21.0826 24.4098 20.9153 24.1997 20.9153H23.0291V2.00506H24.1997C24.4098 2.00506 24.5899 1.86561 24.5899 1.67037C24.5899 1.47513 24.4098 1.33568 24.1997 1.33568H21.1082C20.8981 1.33568 20.748 1.47513 20.748 1.67037C20.748 1.86561 20.8981 2.00506 21.1082 2.00506H22.2788V20.9153Z" fill="#B377D8"/>
<path d="M41.7882 21.0826L33.4142 10.7908H35.9354C38.9668 10.7908 41.398 8.53159 41.398 5.71458C41.398 2.89758 38.9668 0.610504 35.9354 0.610504H29.2121C28.972 0.610504 28.822 0.77785 28.822 0.973089V21.2778C28.822 21.4731 28.972 21.6125 29.2121 21.6125C29.4222 21.6125 29.5723 21.4731 29.5723 21.2778V1.30778H35.9354C38.5466 1.30778 40.6777 3.28805 40.6777 5.71458C40.6777 8.11322 38.5466 10.0935 35.9354 10.0935H32.6338C32.5137 10.0935 32.3937 10.1772 32.3036 10.3166V10.2887C32.2436 10.4003 32.2736 10.5676 32.3637 10.6792L32.3336 10.6513L41.2179 21.4731C41.308 21.5568 41.398 21.6125 41.4881 21.6125C41.5781 21.6125 41.6681 21.5846 41.7582 21.5289L41.7282 21.5568C41.8782 21.4452 41.9083 21.2221 41.7882 21.0826Z" fill="#B377D8"/>
<path d="M58.9564 21.0826L50.5824 10.7908H53.1036C56.1351 10.7908 58.5662 8.53159 58.5662 5.71458C58.5662 2.89758 56.1351 0.610504 53.1036 0.610504H46.3804C46.1403 0.610504 45.9902 0.77785 45.9902 0.973089V21.2778C45.9902 21.4731 46.1403 21.6125 46.3804 21.6125C46.5905 21.6125 46.7405 21.4731 46.7405 21.2778V1.30778H53.1036C55.7149 1.30778 57.8459 3.28805 57.8459 5.71458C57.8459 8.11322 55.7149 10.0935 53.1036 10.0935H49.802C49.682 10.0935 49.5619 10.1772 49.4719 10.3166V10.2887C49.4118 10.4003 49.4418 10.5676 49.5319 10.6792L49.5019 10.6513L58.3862 21.4731C58.4762 21.5568 58.5662 21.6125 58.6563 21.6125C58.7463 21.6125 58.8364 21.5846 58.9264 21.5289L58.8964 21.5568C59.0465 21.4452 59.0765 21.2221 58.9564 21.0826Z" fill="#B377D8"/>
<path d="M63.2185 11.5438L73.0032 20.6364C73.6935 21.2779 74.5639 21.6125 75.5244 21.6125C76.4849 21.6125 77.3553 21.2779 78.0456 20.6364L87.8303 11.5438C87.9804 11.3765 87.9804 11.2091 87.8303 11.0697L78.0456 1.94929C77.3553 1.33568 76.4849 1.00098 75.5244 1.00098C74.5639 1.00098 73.6935 1.33568 73.0032 1.94929L63.2185 11.0697C63.1284 11.1534 63.0984 11.237 63.0984 11.2928C63.0984 11.3765 63.1284 11.4323 63.2185 11.5438ZM63.9688 11.2928L73.4834 2.45132C74.0237 1.94928 74.744 1.67037 75.5244 1.67037C76.3048 1.67037 77.0251 1.94928 77.5354 2.45132L87.08 11.2928L77.5354 20.1622C77.0251 20.6364 76.3048 20.9153 75.5244 20.9153C74.744 20.9153 74.0237 20.6364 73.4834 20.1622L63.9688 11.2928Z" fill="#B377D8"/>
<path d="M89.1209 0.498944L96.6846 9.98194C96.7446 9.98194 96.7446 10.0098 96.8347 10.0935C96.8347 10.1214 96.8347 10.1214 96.8647 10.1214C96.8647 10.1214 96.9247 10.1772 96.9547 10.1772H97.0147L97.1948 10.1214C97.1948 10.1214 97.1648 10.1214 97.2549 10.0935C97.1948 10.0935 97.1948 10.0935 97.2549 10.0656L97.3449 9.98193V10.0098L104.939 0.49894C105.029 0.387377 105.029 0.19214 104.879 0.0526827C104.698 -0.0309919 104.428 -0.00310159 104.308 0.136356L97.0147 9.25676L89.7212 0.136356C89.5712 0.0247924 89.331 -0.058881 89.181 0.0526827L89.211 0.0247916C89.0309 0.136355 89.0009 0.359489 89.1209 0.498944ZM104.939 21.0826L97.2849 11.5159V11.5438L97.1648 11.4323C97.1648 11.4323 97.1348 11.4323 97.0748 11.4044H96.8947C96.8647 11.4602 96.8647 11.4602 96.8046 11.5159C96.7746 11.5717 96.7746 11.5438 96.7146 11.5996V11.5717L89.1209 21.0826C89.0009 21.2221 89.0309 21.3894 89.181 21.5289C89.241 21.5568 89.3911 21.6125 89.4211 21.6125C89.5411 21.6125 89.6312 21.5568 89.7212 21.4731L97.0147 12.3248L104.308 21.4731C104.398 21.5568 104.518 21.6125 104.638 21.6125C104.698 21.6125 104.788 21.5847 104.879 21.5289L104.849 21.5568C104.999 21.4452 105.029 21.2221 104.909 21.0547L104.939 21.0826Z" fill="#B377D8"/>
</g>
<defs>
<filter id="filter0_dd_1_4" x="0" y="0" width="109" height="29.6125" filterUnits="userSpaceOnUse" color-interpolation-filters="sRGB">
<feFlood flood-opacity="0" result="BackgroundImageFix"/>
<feColorMatrix in="SourceAlpha" type="matrix" values="0 0 0 0 0 0 0 0 0 0 0 0 0 0 0 0 0 0 127 0" result="hardAlpha"/>
<feOffset dy="4"/>
<feGaussianBlur stdDeviation="2"/>
<feComposite in2="hardAlpha" operator="out"/>
<feColorMatrix type="matrix" values="0 0 0 0 0 0 0 0 0 0 0 0 0 0 0 0 0 0 0.25 0"/>
<feBlend mode="normal" in2="BackgroundImageFix" result="effect1_dropShadow_1_4"/>
<feColorMatrix in="SourceAlpha" type="matrix" values="0 0 0 0 0 0 0 0 0 0 0 0 0 0 0 0 0 0 127 0" result="hardAlpha"/>
<feOffset dy="4"/>
<feGaussianBlur stdDeviation="2"/>
<feComposite in2="hardAlpha" operator="out"/>
<feColorMatrix type="matrix" values="0 0 0 0 0 0 0 0 0 0 0 0 0 0 0 0 0 0 0.25 0"/>
<feBlend mode="normal" in2="effect1_dropShadow_1_4" result="effect2_dropShadow_1_4"/>
<feBlend mode="normal" in="SourceGraphic" in2="effect2_dropShadow_1_4" result="shape"/>
</filter>
</defs>
</svg>
