<svg xmlns:mydata="http://www.w3.org/2000/svg" mydata:contrastcolor="d3b9d7" mydata:template="Contrast" mydata:presentation="2.5" mydata:layouttype="undefined" mydata:specialfontid="undefined" mydata:id1="725" mydata:id2="277" mydata:companyname="Pirrox" mydata:companytagline="" version="1.1" xmlns="http://www.w3.org/2000/svg" xmlns:xlink="http://www.w3.org/1999/xlink" viewBox="0 35 550 400"><g fill="#772583" fill-rule="nonzero" stroke="none" stroke-width="1" stroke-linecap="butt" stroke-linejoin="miter" stroke-miterlimit="10" stroke-dasharray="" stroke-dashoffset="0" font-family="none" font-weight="none" font-size="none" text-anchor="none" ><g data-paper-data="{&quot;isGlobalGroup&quot;:true,&quot;bounds&quot;:{&quot;x&quot;:82.70688751958727,&quot;y&quot;:190.71955468631177,&quot;width&quot;:384.5862249608254,&quot;height&quot;:88.56089062737652}}"><g data-paper-data="{&quot;isPrimaryText&quot;:true}"><path d="M109.79326,193.2212h-25.60062c-0.80002,0 -1.48575,0.68573 -1.48575,1.48575v83.20203c0,0.80002 0.68573,1.37146 1.48575,1.37146c0.80002,0 1.37146,-0.57144 1.37146,-1.37146v-81.83057h24.22916c9.9431,0 18.05758,8.11448 18.05758,18.05758c0,9.82881 -8.11448,17.94329 -18.05758,17.94329h-12.57174c-0.80002,0 -1.37146,0.68573 -1.37146,1.48575c0,0.80002 0.57144,1.37146 1.37146,1.37146h12.57174c11.54314,0 20.80051,-9.25737 20.80051,-20.80051c0,-11.54314 -9.25737,-20.9148 -20.80051,-20.9148z" data-paper-data="{&quot;glyphName&quot;:&quot;P&quot;,&quot;glyphIndex&quot;:0,&quot;firstGlyphOfWord&quot;:true,&quot;word&quot;:1}"></path><path d="M152.30859,276.42323h-4.45725c-0.80002,0 -1.37146,0.68573 -1.37146,1.48575c0,0.80002 0.57144,1.37146 1.37146,1.37146h11.77172c0.80002,0 1.48575,-0.57144 1.48575,-1.37146c0,-0.80002 -0.68573,-1.48575 -1.48575,-1.48575h-4.45725v-77.4876h4.45725c0.80002,0 1.48575,-0.57144 1.48575,-1.37146c0,-0.80002 -0.68573,-1.37146 -1.48575,-1.37146h-11.77172c-0.80002,0 -1.37146,0.57144 -1.37146,1.37146c0,0.80002 0.57144,1.37146 1.37146,1.37146h4.45725z" data-paper-data="{&quot;glyphName&quot;:&quot;I&quot;,&quot;glyphIndex&quot;:1,&quot;word&quot;:1}"></path><path d="M226.59611,277.10896l-31.88649,-42.17246h9.60023c11.54314,0 20.80051,-9.25737 20.80051,-20.80051c0,-11.54314 -9.25737,-20.9148 -20.80051,-20.9148h-25.60062c-0.91431,0 -1.48575,0.68573 -1.48575,1.48575v83.20203c0,0.80002 0.57144,1.37146 1.48575,1.37146c0.80002,0 1.37146,-0.57144 1.37146,-1.37146v-81.83057h24.22916c9.9431,0 18.05758,8.11448 18.05758,18.05758c0,9.82881 -8.11448,17.94329 -18.05758,17.94329h-12.57174c-0.45715,0 -0.91431,0.34287 -1.25717,0.91431v-0.11429c-0.22858,0.45715 -0.11429,1.14289 0.22858,1.60004l-0.11429,-0.11429l33.8294,44.34394c0.34287,0.34287 0.68573,0.57144 1.0286,0.57144c0.34287,0 0.68573,-0.11429 1.0286,-0.34287l-0.11429,0.11429c0.57144,-0.45715 0.68573,-1.37146 0.22858,-1.9429z" data-paper-data="{&quot;glyphName&quot;:&quot;R&quot;,&quot;glyphIndex&quot;:2,&quot;word&quot;:1}"></path><path d="M291.96914,277.10896l-31.88649,-42.17246h9.60023c11.54314,0 20.80051,-9.25737 20.80051,-20.80051c0,-11.54314 -9.25737,-20.9148 -20.80051,-20.9148h-25.60062c-0.91431,0 -1.48575,0.68573 -1.48575,1.48575v83.20203c0,0.80002 0.57144,1.37146 1.48575,1.37146c0.80002,0 1.37146,-0.57144 1.37146,-1.37146v-81.83057h24.22916c9.9431,0 18.05758,8.11448 18.05758,18.05758c0,9.82881 -8.11448,17.94329 -18.05758,17.94329h-12.57174c-0.45715,0 -0.91431,0.34287 -1.25717,0.91431v-0.11429c-0.22858,0.45715 -0.11429,1.14289 0.22858,1.60004l-0.11429,-0.11429l33.8294,44.34394c0.34287,0.34287 0.68573,0.57144 1.0286,0.57144c0.34287,0 0.68573,-0.11429 1.0286,-0.34287l-0.11429,0.11429c0.57144,-0.45715 0.68573,-1.37146 0.22858,-1.9429z" data-paper-data="{&quot;glyphName&quot;:&quot;R&quot;,&quot;glyphIndex&quot;:3,&quot;word&quot;:1}"></path><path d="M308.1981,238.0223l37.25805,37.25805c2.62864,2.62864 5.943,4.0001 9.60023,4.0001c3.65723,0 6.9716,-1.37146 9.60023,-4.0001l37.25805,-37.25805c0.57144,-0.68573 0.57144,-1.37146 0,-1.9429l-37.25805,-37.37234c-2.62864,-2.51435 -5.943,-3.88581 -9.60023,-3.88581c-3.65723,0 -6.9716,1.37146 -9.60023,3.88581l-37.25805,37.37234c-0.34287,0.34287 -0.45715,0.68573 -0.45715,0.91431c0,0.34287 0.11429,0.57144 0.45715,1.0286zM311.05532,236.9937l36.22946,-36.22946c2.05719,-2.05719 4.80012,-3.20008 7.77162,-3.20008c2.9715,0 5.71443,1.14289 7.65733,3.20008l36.34374,36.22946l-36.34374,36.34374c-1.9429,1.9429 -4.68583,3.08579 -7.65733,3.08579c-2.9715,0 -5.71443,-1.14289 -7.77162,-3.08579z" data-paper-data="{&quot;glyphName&quot;:&quot;O&quot;,&quot;glyphIndex&quot;:4,&quot;word&quot;:1}"></path><path d="M406.82908,192.76405l28.8007,38.85809c0.22858,0 0.22858,0.11429 0.57144,0.45715c0,0.11429 0,0.11429 0.11429,0.11429c0,0 0.22858,0.22858 0.34287,0.22858h0.22858l0.68573,-0.22858c0,0 -0.11429,0 0.22858,-0.11429c-0.22858,0 -0.22858,0 0,-0.11429l0.34287,-0.34287v0.11429l28.91499,-38.97238c0.34287,-0.45715 0.34287,-1.25717 -0.22858,-1.82862c-0.68573,-0.34287 -1.71433,-0.22858 -2.17148,0.34287l-27.77211,37.37234l-27.77211,-37.37234c-0.57144,-0.45715 -1.48575,-0.80002 -2.05719,-0.34287l0.11429,-0.11429c-0.68573,0.45715 -0.80002,1.37146 -0.34287,1.9429zM467.05912,277.10896l-29.14357,-39.20096v0.11429l-0.45715,-0.45715c0,0 -0.11429,0 -0.34287,-0.11429h-0.68573c-0.11429,0.22858 -0.11429,0.22858 -0.34287,0.45715c-0.11429,0.22858 -0.11429,0.11429 -0.34287,0.34287v-0.11429l-28.91499,38.97238c-0.45715,0.57144 -0.34287,1.25717 0.22858,1.82862c0.22858,0.11429 0.80002,0.34287 0.91431,0.34287c0.45715,0 0.80002,-0.22858 1.14289,-0.57144l27.77211,-37.48663l27.77211,37.48663c0.34287,0.34287 0.80002,0.57144 1.25717,0.57144c0.22858,0 0.57144,-0.11429 0.91431,-0.34287l-0.11429,0.11429c0.57144,-0.45715 0.68573,-1.37146 0.22858,-2.05719z" data-paper-data="{&quot;glyphName&quot;:&quot;X&quot;,&quot;glyphIndex&quot;:5,&quot;lastGlyphOfWord&quot;:true,&quot;word&quot;:1}"></path></g></g></g></svg>